<svg xmlns="http://www.w3.org/2000/svg" height="40px" viewBox="0 -960 960 960" width="40px" fill="#fb7979"><path d="M97.67-120q-9.67 0-17-4.5Q73.33-129 69-136.67q-4.33-7.66-4.83-16.16T69-170l382-660q5.33-8.67 12.83-12.67t16.17-4q8.67 0 16.17 4 7.5 4 12.83 12.67l382 660q5.33 8.67 4.83 17.17-.5 8.5-4.83 16.16-4.33 7.67-11.67 12.17-7.33 4.5-17 4.5H97.67ZM506.5-247.5q9.5-9.5 9.5-23.83 0-14.34-9.5-23.84t-23.83-9.5q-14.34 0-23.84 9.5t-9.5 23.84q0 14.33 9.5 23.83 9.5 9.5 23.84 9.5 14.33 0 23.83-9.5Zm0-114q9.5-9.5 9.5-23.83v-149.34q0-14.33-9.5-23.83-9.5-9.5-23.83-9.5-14.34 0-23.84 9.5t-9.5 23.83v149.34q0 14.33 9.5 23.83 9.5 9.5 23.84 9.5 14.33 0 23.83-9.5Z"/></svg>